# xmcd
#
# Track frame offsets:
#	150
#	14894
#	30976
#	45477
#	58555
#	77555
#	93967
#	109588
#	124973
#	139226
#	156086
#	173084
#
# Disc length: 2424 seconds
#
# Revision: 0
# Processed by: cddbd v1.4PL0 Copyright (c) Steve Scherf et al.
# Submitted via: dBpowerAMP V4.0
#
DISCID=9309760c
DTITLE=Big Bill Morganfield - Blues In The Blood
DYEAR=2003
DGENRE=Blues
TTITLE0=Boogie Child
TTITLE1=Evil
TTITLE2=Hoochie Coochie Girl
TTITLE3=Left Alone
TTITLE4=Trapped
TTITLE5=Whiskey
TTITLE6=Feel Like Dyin'
TTITLE7=Love You Right
TTITLE8=Anything Just For You
TTITLE9=Strong Love
TTITLE10=Time To Go
TTITLE11=Why Don't You Live So God Can Use You
EXTD=
EXTT0=
EXTT1=
EXTT2=
EXTT3=
EXTT4=
EXTT5=
EXTT6=
EXTT7=
EXTT8=
EXTT9=
EXTT10=
EXTT11=
PLAYORDER=
